<svg xmlns="http://www.w3.org/2000/svg" viewBox="0 0 347.41 133.93"><defs><style>.cls-1{fill:#ffffff;}</style></defs><g id="Layer_2" data-name="Layer 2"><g id="Layer_1-2" data-name="Layer 1"><path class="cls-1" d="M107.63,31.77V132.41H80.06V31.77ZM149.88,58.9,136.39,85.67l20.06,46.74H125.92l-17.25-48L121.2,58.9Z"/><path class="cls-1" d="M187.52,31.77V62.52q7-5.09,14-5.09,10.62,0,16.85,7.67t6.23,20.72v46.59H197V93.56q0-4.73-1-6.34c-.66-1.08-1.95-1.63-3.87-1.63q-4.65,0-4.65,6.86v40H160V31.77Z"/><path class="cls-1" d="M266.75,31.77V132.41H239.17V31.77Z"/><path class="cls-1" d="M309.44,57.39a36.43,36.43,0,0,1,26.8,11.25,36.86,36.86,0,0,1,11.17,27,36.76,36.76,0,0,1-11.32,27.13,38.88,38.88,0,0,1-54.67,0,36.74,36.74,0,0,1-11.35-27.09,36.35,36.35,0,0,1,11.35-27.17Q292.77,57.4,309.44,57.39ZM308.7,84.6a10.07,10.07,0,0,0-7.52,3.21,11.39,11.39,0,0,0,0,15.66,10.32,10.32,0,0,0,15,0,11.41,11.41,0,0,0,0-15.66A10.16,10.16,0,0,0,308.7,84.6Z"/><polygon class="cls-1" points="61.63 36.28 58.56 31.52 54.27 37.22 61.63 36.28"/><polygon class="cls-1" points="62.42 38.95 53.17 40.13 43.16 53.44 69.98 50.63 62.42 38.95"/><polygon class="cls-1" points="70.19 128.93 70.19 59.66 42.62 59.66 42.62 101.44 70.19 128.93"/><path class="cls-1" d="M36.22,103.54a7.71,7.71,0,0,1-4-1.89q-2.25-2.33-2.25-9.33L26.6,35.68,0,0V97.12q0,16.95,9.14,26.5t25.51,9.55H65.94Z"/></g></g></svg>
